<svg id="a40c1a40-fa74-4fb3-8d27-af25e5652e02" data-name="Layer 1" xmlns="http://www.w3.org/2000/svg" viewBox="0 0 504.16287 144"><rect width="504.16287" height="144" style="fill:none"/><rect x="78.4951" y="43.6968" width="31.5" height="56.6064" style="fill:#ff5f00"/><path d="M224.41386,306a35.9375,35.9375,0,0,1,13.7499-28.3032,36,36,0,1,0,0,56.6064A35.938,35.938,0,0,1,224.41386,306Z" transform="translate(-143.91856 -234)" style="fill:#eb001b"/><path d="M296.409,306a35.99867,35.99867,0,0,1-58.24521,28.3032,36.00518,36.00518,0,0,0,0-56.6064A35.99867,35.99867,0,0,1,296.409,306Z" transform="translate(-143.91856 -234)" style="fill:#f79e1b"/><path d="M292.97436,328.3077v-1.1589h.4673v-.2361h-1.1901v.2361h.4675v1.1589Zm2.3105,0v-1.3973h-.3648l-.4196.9611-.4197-.9611h-.365v1.3973h.2576v-1.054l.3935.9087h.26711l.39349-.911v1.0563Z" transform="translate(-143.91856 -234)" style="fill:#f79e1b"/><polygon points="189.157 108.202 187.824 108.202 187.824 96.055 187.824 71.759 187.824 47.463 187.824 35.316 189.157 35.316 189.157 59.611 189.157 83.907 189.157 108.202" style="fill:#fff"/><path d="M369.97109,328.30869h-3.74122V285.37558h3.74122Zm27.293-42.93311a29.13247,29.13247,0,0,1,9.66016,1.50244,20.54648,20.54648,0,0,1,7.29883,4.29346,18.82,18.82,0,0,1,4.62988,6.76172,25.2182,25.2182,0,0,1,0,17.81738,18.81762,18.81762,0,0,1-4.62988,6.76221,20.53928,20.53928,0,0,1-7.29883,4.29346,29.11984,29.11984,0,0,1-9.66016,1.50244H381.59316V285.37558Zm-11.92968,3.55713v35.81885h11.92968a24.72126,24.72126,0,0,0,8.28028-1.27295,16.77648,16.77648,0,0,0,6.041-3.603,15.0198,15.0198,0,0,0,3.71094-5.64306,22.35805,22.35805,0,0,0,0-14.78125,15.15681,15.15681,0,0,0-3.71094-5.65772,16.49932,16.49932,0,0,0-6.041-3.60351,25.01066,25.01066,0,0,0-8.28028-1.25733Zm78.6289-4.04785a22.97654,22.97654,0,0,1,5.33692.61328,21.59063,21.59063,0,0,1,4.8291,1.76319,19.26143,19.26143,0,0,1,4.0791,2.77539,17.01572,17.01572,0,0,1,3.1123,3.68017l-3.12793,2.085a15.116,15.116,0,0,0-2.62207-3.03564,16.4616,16.4616,0,0,0-3.34277-2.3003,17.16135,17.16135,0,0,0-3.9248-1.45654,18.46749,18.46749,0,0,0-4.33985-.50586,19.03537,19.03537,0,0,0-7.12988,1.31836,16.99574,16.99574,0,0,0-5.73438,3.7417,17.48439,17.48439,0,0,0-3.833,5.7959,20.75862,20.75862,0,0,0,0,14.96533,17.47928,17.47928,0,0,0,3.833,5.7959,16.98717,16.98717,0,0,0,5.73438,3.74121,19.01623,19.01623,0,0,0,7.12988,1.31885,18.82191,18.82191,0,0,0,4.32422-.49072,16.68442,16.68442,0,0,0,3.91016-1.44141,16.42818,16.42818,0,0,0,3.34277-2.2998,14.76727,14.76727,0,0,0,2.62207-3.0669l3.06641,2.23877a18.18515,18.18515,0,0,1-3.17383,3.61865,19.8084,19.8084,0,0,1-4.04785,2.72949,21.03046,21.03046,0,0,1-4.76856,1.73243,23.97561,23.97561,0,0,1-14-1.02735,21.025,21.025,0,0,1-6.97656-4.52343,20.74492,20.74492,0,0,1-4.61523-6.93067,24.37931,24.37931,0,0,1,0-17.74023,20.719,20.719,0,0,1,4.61523-6.94629,21.03249,21.03249,0,0,1,6.97656-4.52344A23.13114,23.13114,0,0,1,463.96327,284.88486Zm28.85742,19.56494a11.0293,11.0293,0,0,1,2.00879-2.45312,10.72962,10.72962,0,0,1,2.499-1.70215,12.47653,12.47653,0,0,1,2.82129-.981,13.73243,13.73243,0,0,1,2.94433-.32226,14.39955,14.39955,0,0,1,4.9375.8125,11.13893,11.13893,0,0,1,3.84863,2.31543,10.13945,10.13945,0,0,1,2.48438,3.66455,12.79658,12.79658,0,0,1,.874,4.83007v17.69483h-3.49609v-16.6211a11.82475,11.82475,0,0,0-.61328-3.92578,7.84633,7.84633,0,0,0-1.80957-2.959,7.9592,7.9592,0,0,0-2.91309-1.85547,11.13969,11.13969,0,0,0-3.92578-.644,10.2964,10.2964,0,0,0-3.78711.68994,9.05794,9.05794,0,0,0-3.0664,1.96289,9.23828,9.23828,0,0,0-2.05469,3.03564,9.78042,9.78042,0,0,0-.752,3.8794v16.4375H489.3246V284.14853h3.49609Zm43.21-5.45849a13.11521,13.11521,0,0,1,5.35058,1.08886,12.68765,12.68765,0,0,1,4.2627,3.03565,14.43555,14.43555,0,0,1,2.83691,4.66162,16.863,16.863,0,0,1,1.07324,5.93408c0,.26563-.00488.5166-.01465.751q-.01611.353-.04589.69043H525.29726a12.40913,12.40913,0,0,0,1.11914,4.477,10.56862,10.56862,0,0,0,2.43847,3.32715,10.27766,10.27766,0,0,0,3.44922,2.07031,12.11186,12.11186,0,0,0,4.15528.70508,12.80778,12.80778,0,0,0,5.42871-1.104,15.199,15.199,0,0,0,4.32324-3.00537l1.87109,2.39209a17.14471,17.14471,0,0,1-2.80566,2.30029,14.98357,14.98357,0,0,1-2.91406,1.47168,14.37333,14.37333,0,0,1-3.02051.76661,22.32086,22.32086,0,0,1-3.09668.21484,15.28005,15.28005,0,0,1-5.82715-1.08887,13.5515,13.5515,0,0,1-4.59961-3.05127,13.79423,13.79423,0,0,1-3.00586-4.69189,16.37017,16.37017,0,0,1-1.07324-6.04151A16.12411,16.12411,0,0,1,522.82851,307.9a14.25392,14.25392,0,0,1,3.00488-4.72266,13.57607,13.57607,0,0,1,4.53906-3.082A14.43287,14.43287,0,0,1,536.03066,298.99131Zm-.06153,3.09716a10.50706,10.50706,0,0,0-4.0332.75147,10.10774,10.10774,0,0,0-3.2041,2.08545,10.81339,10.81339,0,0,0-2.25391,3.17383,12.58891,12.58891,0,0,0-1.11914,4.04834h20.63867a12.478,12.478,0,0,0-1.01269-4.09424,10.31139,10.31139,0,0,0-2.16211-3.17383,9.61078,9.61078,0,0,0-6.85352-2.791Zm33.70117-3.09716a15.28282,15.28282,0,0,1,5.96485,1.1499,12.75921,12.75921,0,0,1,4.67676,3.32763l-2.26954,2.36133a12.53947,12.53947,0,0,0-3.78711-2.62207,11.37194,11.37194,0,0,0-4.67675-.93554,11.053,11.053,0,0,0-4.40039.874,10.80754,10.80754,0,0,0-3.542,2.42285,11.07186,11.07186,0,0,0-2.34668,3.67969,13.22753,13.22753,0,0,0,0,9.292,10.74991,10.74991,0,0,0,5.88868,6.07227,11.053,11.053,0,0,0,4.40039.874,11.31977,11.31977,0,0,0,4.73828-.98145,13.16026,13.16026,0,0,0,3.81738-2.60644l2.17774,2.39209a13.07136,13.07136,0,0,1-4.69239,3.32715,16.10337,16.10337,0,0,1-11.91406.01513,13.92431,13.92431,0,0,1-7.72754-7.835,16.58924,16.58924,0,0,1,0-11.82226,13.88959,13.88959,0,0,1,7.72754-7.85059A15.3168,15.3168,0,0,1,569.6703,298.99131Zm21.15918,12.63476h4.69239l12.14355-12.1748h4.416l-13.73828,13.61621,13.98339,15.24121h-4.44629l-12.35839-13.52393h-4.69239v13.52393h-3.49609V284.14853h3.49609Z" transform="translate(-143.91856 -234)" style="fill:#fff"/></svg>