<?xml version="1.0" encoding="utf-8"?>
<!-- Generator: Adobe Illustrator 16.0.0, SVG Export Plug-In . SVG Version: 6.00 Build 0)  -->
<!DOCTYPE svg PUBLIC "-//W3C//DTD SVG 1.1//EN" "http://www.w3.org/Graphics/SVG/1.1/DTD/svg11.dtd">
<svg version="1.1" id="Layer_1" xmlns="http://www.w3.org/2000/svg" xmlns:xlink="http://www.w3.org/1999/xlink" x="0px" y="0px"
	 width="44px" height="88px" viewBox="1820.5 537.1 44 88" style="enable-background:new 1820.5 537.1 44 88;" xml:space="preserve"
	>
<path style="fill:#582B7F;" d="M1858.3,559c-1.9-1.5-4-2.3-5.6-2.3c-3.6,0-4.6,0.8-5.5,1.5c-0.7,0.5-1.2,0.9-3.6,0.9
	c-1.8,0-4.5-0.3-8-0.8c1.7-1.3,4-2.1,5.9-2.7c3.6-1.1,6.9-1.3,6.9-1.4c0.9-0.1,1.6-0.9,1.6-1.8c0-0.9-0.8-1.6-1.7-1.6h-11.5
	c-3.4,0-5.9,1-7.4,2.8c-0.9,1.1-1.2,2.3-1.4,3.3c-0.4-0.1-0.8-0.1-1.1-0.2c-0.2,0-0.3,0-0.5,0c-1.5,0-2.8,1.4-2.8,3.1v4.7
	c0,1.7,1.4,3.1,3.1,3.1h27.9c2.2,0,3.9-0.3,5-0.9c1.2-0.6,1.8-1.6,1.8-2.8C1861.4,563.1,1861.1,561.2,1858.3,559z M1858.7,564.9
	c-0.6,0.3-1.8,0.7-4.1,0.7h-27.9c-0.6,0-1.1-0.5-1.1-1.1v-4.7c0-0.6,0.4-1.2,0.8-1.2c0,0,0.1,0,0.1,0c0.5,0.1,1,0.2,1.5,0.3
	c0,0,0,0.1,0,0.1c0,0.3-0.1,1-0.2,1.6c-0.2,1.9,0,2.8,0.5,3.5c0.4,0.4,0.9,0.7,1.4,0.7c1.2,0,1.8-1,2.1-1.4c0.3-0.5,0.7-1.3,1.2-2.3
	c0.2-0.4,0.4-0.8,0.7-1.1c4.4,0.7,7.6,1.1,9.8,1.1c2.8,0,3.8-0.6,4.8-1.3c0.7-0.5,1.4-1.1,4.4-1.1c2.5,0,6.8,3.3,6.8,5.2
	C1859.5,564.1,1859.4,564.5,1858.7,564.9z"/>
<path style="fill:#FFFFFF;" d="M1858.3,603.2c-1.9-1.5-4-2.3-5.6-2.3c-3.6,0-4.6,0.8-5.5,1.5c-0.7,0.5-1.2,0.9-3.6,0.9
	c-1.8,0-4.5-0.3-8-0.8c1.7-1.3,4-2.1,5.9-2.7c3.6-1.1,6.9-1.3,6.9-1.4c0.9-0.1,1.6-0.9,1.6-1.8c0-0.9-0.8-1.6-1.7-1.6h-11.5
	c-3.4,0-5.9,1-7.4,2.8c-0.9,1.1-1.2,2.3-1.4,3.3c-0.4-0.1-0.8-0.1-1.1-0.2c-0.2,0-0.3,0-0.5,0c-1.5,0-2.8,1.4-2.8,3.1v4.7
	c0,1.7,1.4,3.1,3.1,3.1h27.9c2.2,0,3.9-0.3,5-0.9c1.2-0.6,1.8-1.6,1.8-2.8C1861.4,607.3,1861.1,605.4,1858.3,603.2z M1858.7,609
	c-0.6,0.3-1.8,0.7-4.1,0.7h-27.9c-0.6,0-1.1-0.5-1.1-1.1v-4.7c0-0.6,0.4-1.2,0.8-1.2c0,0,0.1,0,0.1,0c0.5,0.1,1,0.2,1.5,0.3
	c0,0,0,0.1,0,0.1c0,0.3-0.1,1-0.2,1.6c-0.2,1.9,0,2.8,0.5,3.5c0.4,0.4,0.9,0.7,1.4,0.7c1.2,0,1.8-1,2.1-1.4c0.3-0.5,0.7-1.3,1.2-2.3
	c0.2-0.4,0.4-0.8,0.7-1.1c4.4,0.7,7.6,1.1,9.8,1.1c2.8,0,3.8-0.6,4.8-1.3c0.7-0.5,1.4-1.1,4.4-1.1c2.5,0,6.8,3.3,6.8,5.2
	C1859.5,608.3,1859.4,608.7,1858.7,609z"/>
</svg>
