<?xml version="1.0" encoding="utf-8"?>
<!-- Generator: Adobe Illustrator 19.0.0, SVG Export Plug-In . SVG Version: 6.00 Build 0)  -->
<svg version="1.0" id="Layer_1" xmlns="http://www.w3.org/2000/svg" xmlns:xlink="http://www.w3.org/1999/xlink" x="0px" y="0px"
	 viewBox="0 0 44 88" style="enable-background:new 0 0 44 88;" xml:space="preserve">
<style type="text/css">
	.st0{fill:#582B7F;}
	.st1{fill:#FFFFFF;}
</style>
<path class="st0" d="M35.6,28.8h-2.4c0,0-0.1,0-0.3,0c-2,0.1-6.7,0.1-10.9-2.1l8.6-2.2c0.8-0.2,1.3-1,1.1-1.8l-0.2-0.6
	c-0.2-0.8-1-1.3-1.8-1.1l-12.1,2.5c-1.1-1.3-2-2.9-2.6-4.8c-0.5-1.7-1-3.1-1-4.2h4.7c0.8,0,1.3-0.2,1.7-0.6c0.7-0.7,0.7-1.7,0.6-2.8
	v-0.5C21,8.5,18.9,3,12.3,3s-8,5.2-7.9,6.6c0,0.2,1.7,14.6,2.2,20.8c0.3,3.2,0.9,5.1,4.7,6L10.5,41h23.4l-0.6-4.1h2.2
	c2.2,0,4.1-1.8,4.1-4.1C39.6,30.6,37.8,28.8,35.6,28.8z M35.6,35.3h-2.4l-0.3-1.9H11.6l-0.2,1.3c-3-0.7-3.1-2.2-3.3-4.5
	C7.7,24,6,9.5,6,9.4c0-0.8,1.1-4.8,6.4-4.8s7,4.5,7,6v0.6c0,0.6,0,1.4-0.2,1.6c-0.1,0.1-0.3,0.1-0.6,0.1h-6.5v0.9
	c0.1,1.3,0.4,3,1.2,5.4c0.6,1.8,1.4,3.4,2.4,4.6l-3.5,0.9c-0.8,0.2-1.3,1-1.1,1.8l0.3,1.5c0.2,0.8,1,1.3,1.8,1.1l6.5-1.6
	c4.9,3.1,11,3.2,13.5,3h2.5c1.4,0,2.4,1.1,2.4,2.4C38.1,34.2,36.9,35.3,35.6,35.3z"/>
<path class="st1" d="M35.6,72.8h-2.4c0,0-0.1,0-0.3,0c-2,0.1-6.7,0.1-10.9-2.1l8.6-2.2c0.8-0.2,1.3-1,1.1-1.8l-0.2-0.6
	c-0.2-0.8-1-1.3-1.8-1.1l-12.1,2.5c-1.1-1.3-2-2.9-2.6-4.8c-0.5-1.7-1-3.1-1-4.2h4.7c0.8,0,1.3-0.2,1.7-0.6c0.7-0.7,0.7-1.7,0.6-2.8
	v-0.5c0-2.1-2.1-7.6-8.7-7.6s-8,5.2-7.9,6.6c0,0.2,1.7,14.6,2.2,20.8c0.3,3.2,0.9,5.1,4.7,6L10.5,85h23.4l-0.6-4.1h2.2
	c2.2,0,4.1-1.8,4.1-4.1C39.6,74.6,37.8,72.8,35.6,72.8z M35.6,79.3h-2.4l-0.3-1.9H11.6l-0.2,1.3c-3-0.7-3.1-2.2-3.3-4.5
	C7.7,68,6,53.5,6,53.4c0-0.8,1.1-4.8,6.4-4.8s7,4.5,7,6v0.6c0,0.6,0,1.4-0.2,1.6c-0.1,0.1-0.3,0.1-0.6,0.1h-6.5v0.9
	c0.1,1.3,0.4,3,1.2,5.4c0.6,1.8,1.4,3.4,2.4,4.6l-3.5,0.9c-0.8,0.2-1.3,1-1.1,1.8l0.3,1.5c0.2,0.8,1,1.3,1.8,1.1l6.5-1.6
	c4.9,3.1,11,3.2,13.5,3h2.5c1.4,0,2.4,1.1,2.4,2.4C38.1,78.2,36.9,79.3,35.6,79.3z"/>
</svg>
