<?xml version="1.0" encoding="utf-8"?>
<!-- Generator: Adobe Illustrator 16.0.0, SVG Export Plug-In . SVG Version: 6.00 Build 0)  -->
<!DOCTYPE svg PUBLIC "-//W3C//DTD SVG 1.1//EN" "http://www.w3.org/Graphics/SVG/1.1/DTD/svg11.dtd">
<svg version="1.1" id="Layer_1" xmlns="http://www.w3.org/2000/svg" xmlns:xlink="http://www.w3.org/1999/xlink" x="0px" y="0px"
	 width="44px" height="88px" viewBox="1820.5 537.1 44 88" style="enable-background:new 1820.5 537.1 44 88;" xml:space="preserve"
	>
<g>
	<path style="fill:#582B7F;" d="M1858.7,567.4h-1c-0.2-6.3-5.3-11.4-11.7-11.4c-4.1,0-7.8,2.1-9.9,5.4c-2.1,0.2-9.2,1.2-9.2,6
		c0,0,0,0,0,0.1h-0.3c-0.4,0-0.7,0.3-0.7,0.7s0.3,0.7,0.7,0.7l0,0c0,0.4,0.4,0.8,0.8,0.8h0.8c0.6,1.3,1.9,2.2,3.4,2.2
		s2.8-0.9,3.4-2.2h12.6c0.7,1.1,1.9,1.8,3.3,1.8s2.6-0.7,3.3-1.8h3c0.5,0,0.8-0.3,0.8-0.8h0.6c0.4,0,0.7-0.3,0.7-0.7
		C1859.4,567.7,1859,567.4,1858.7,567.4z M1831.6,570.3c-1.3,0-2.4-1.1-2.4-2.4s1.1-2.4,2.4-2.4s2.4,1.1,2.4,2.4
		S1832.9,570.3,1831.6,570.3z M1838.7,562.3c1.3-2.7,4-4.5,7.2-4.5c3.2,0,5.9,1.8,7.2,4.5H1838.7z M1851,569.8
		c-1.4,0-2.5-1.1-2.5-2.5s1.1-2.5,2.5-2.5s2.5,1.1,2.5,2.5S1852.3,569.8,1851,569.8z"/>
	<g>
		<path style="fill:#582B7F;" d="M1834.4,551c3.3-2.2,7.2-3.5,11.4-3.5c4,0,7.8,1.2,11,3.3l0.8-0.8c-3.4-2.3-7.4-3.6-11.7-3.6
			c-4.5,0-8.7,1.4-12.1,3.8L1834.4,551z"/>
		<path style="fill:#582B7F;" d="M1836.6,553.1c2.7-1.7,5.9-2.7,9.2-2.7c3.2,0,6.2,0.9,8.8,2.4l0.8-0.8c-2.7-1.7-6-2.7-9.5-2.7
			c-3.7,0-7.2,1.1-10,3L1836.6,553.1z"/>
		<path style="fill:#582B7F;" d="M1838.7,555.3c2.1-1.2,4.5-1.9,7.1-1.9c2.4,0,4.6,0.6,6.6,1.6l0.8-0.8c-2.2-1.2-4.7-1.9-7.4-1.9
			c-2.9,0-5.6,0.8-7.8,2.2L1838.7,555.3z"/>
	</g>
</g>
<g>
	<path style="fill:#FFFFFF;" d="M1858.7,611.5h-1c-0.2-6.3-5.3-11.4-11.7-11.4c-4.1,0-7.8,2.1-9.9,5.4c-2.1,0.2-9.2,1.2-9.2,6
		c0,0,0,0,0,0.1h-0.3c-0.4,0-0.7,0.3-0.7,0.7s0.3,0.7,0.7,0.7l0,0c0,0.4,0.4,0.8,0.8,0.8h0.8c0.6,1.3,1.9,2.2,3.4,2.2
		s2.8-0.9,3.4-2.2h12.6c0.7,1.1,1.9,1.8,3.3,1.8s2.6-0.7,3.3-1.8h3c0.5,0,0.8-0.3,0.8-0.8h0.6c0.4,0,0.7-0.3,0.7-0.7
		C1859.4,611.9,1859,611.5,1858.7,611.5z M1831.6,614.5c-1.3,0-2.4-1.1-2.4-2.4s1.1-2.4,2.4-2.4s2.4,1.1,2.4,2.4
		S1832.9,614.5,1831.6,614.5z M1838.7,606.5c1.3-2.7,4-4.5,7.2-4.5c3.2,0,5.9,1.8,7.2,4.5H1838.7z M1851,614c-1.4,0-2.5-1.1-2.5-2.5
		s1.1-2.5,2.5-2.5s2.5,1.1,2.5,2.5S1852.3,614,1851,614z"/>
	<g>
		<path style="fill:#FFFFFF;" d="M1834.4,595.2c3.3-2.2,7.2-3.5,11.4-3.5c4,0,7.8,1.2,11,3.3l0.8-0.8c-3.4-2.3-7.4-3.6-11.7-3.6
			c-4.5,0-8.7,1.4-12.1,3.8L1834.4,595.2z"/>
		<path style="fill:#FFFFFF;" d="M1836.6,597.3c2.7-1.7,5.9-2.7,9.2-2.7c3.2,0,6.2,0.9,8.8,2.4l0.8-0.8c-2.7-1.7-6-2.7-9.5-2.7
			c-3.7,0-7.2,1.1-10,3L1836.6,597.3z"/>
		<path style="fill:#FFFFFF;" d="M1838.7,599.5c2.1-1.2,4.5-1.9,7.1-1.9c2.4,0,4.6,0.6,6.6,1.6l0.8-0.8c-2.2-1.2-4.7-1.9-7.4-1.9
			c-2.9,0-5.6,0.8-7.8,2.2L1838.7,599.5z"/>
	</g>
</g>
</svg>
